<mxfile host="65bd71144e">
    <diagram id="GJvPAcB6VEv1TbaFpxrx" name="Page-1">
        <mxGraphModel dx="7350" dy="4150" grid="1" gridSize="10" guides="1" tooltips="1" connect="1" arrows="1" fold="1" page="1" pageScale="1" pageWidth="850" pageHeight="1100" background="none" math="0" shadow="0">
            <root>
                <mxCell id="0"/>
                <mxCell id="1" parent="0"/>
                <mxCell id="34" style="edgeStyle=entityRelationEdgeStyle;rounded=1;html=1;strokeColor=#FFCC99;strokeWidth=6;fontSize=32;fontColor=#FFFF88;targetPerimeterSpacing=0;movable=1;resizable=1;rotatable=1;deletable=1;editable=1;connectable=1;" parent="1" source="5" target="21" edge="1">
                    <mxGeometry relative="1" as="geometry">
                        <mxPoint x="689.9999999999995" y="243" as="targetPoint"/>
                    </mxGeometry>
                </mxCell>
                <mxCell id="5" value="" style="rounded=1;whiteSpace=wrap;html=1;glass=0;fontSize=24;fillColor=#ffcc99;strokeColor=#36393d;shadow=0;arcSize=6;movable=1;resizable=1;rotatable=1;deletable=1;editable=1;connectable=1;" parent="1" vertex="1">
                    <mxGeometry x="-344" y="233" width="778.38" height="450" as="geometry"/>
                </mxCell>
                <mxCell id="2" value="&lt;font size=&quot;1&quot; style=&quot;&quot;&gt;&lt;b style=&quot;font-size: 40px;&quot;&gt;Java Development Kit - (JDK)&lt;/b&gt;&lt;/font&gt;" style="text;html=1;align=center;verticalAlign=middle;resizable=1;points=[];autosize=1;strokeColor=none;fillColor=none;glass=0;imageAlign=left;imageVerticalAlign=middle;movable=1;rotatable=1;deletable=1;editable=1;connectable=1;" parent="1" vertex="1">
                    <mxGeometry x="-245" y="90" width="580" height="60" as="geometry"/>
                </mxCell>
                <mxCell id="6" value="&lt;b&gt;&lt;font style=&quot;font-size: 26px;&quot;&gt;Java Development Kit&lt;/font&gt;&lt;/b&gt;" style="text;html=1;align=center;verticalAlign=middle;resizable=1;points=[];autosize=1;strokeColor=none;fillColor=none;fontSize=24;fontColor=#FF0080;movable=1;rotatable=1;deletable=1;editable=1;connectable=1;" parent="1" vertex="1">
                    <mxGeometry x="-105" y="243" width="290" height="40" as="geometry"/>
                </mxCell>
                <mxCell id="7" value="" style="rounded=1;whiteSpace=wrap;html=1;glass=0;fontSize=24;fillColor=#ffff88;strokeColor=#36393d;shadow=0;arcSize=6;movable=1;resizable=1;rotatable=1;deletable=1;editable=1;connectable=1;" parent="1" vertex="1">
                    <mxGeometry x="-262.7" y="293" width="605.4" height="350" as="geometry"/>
                </mxCell>
                <mxCell id="9" value="&lt;font size=&quot;1&quot; color=&quot;#003366&quot;&gt;&lt;b style=&quot;font-size: 22px;&quot;&gt;Java Runtime Enviroment&lt;/b&gt;&lt;/font&gt;" style="text;html=1;align=center;verticalAlign=middle;resizable=1;points=[];autosize=1;strokeColor=none;fillColor=none;fontSize=24;fontColor=#FF0080;movable=1;rotatable=1;deletable=1;editable=1;connectable=1;" parent="1" vertex="1">
                    <mxGeometry x="-99.81" y="303" width="290" height="40" as="geometry"/>
                </mxCell>
                <mxCell id="12" value="" style="rounded=1;whiteSpace=wrap;html=1;glass=0;fontSize=24;shadow=0;arcSize=6;movable=1;resizable=1;rotatable=1;deletable=1;editable=1;connectable=1;fillColor=#1ba1e2;fontColor=#ffffff;strokeColor=none;" parent="1" vertex="1">
                    <mxGeometry x="-193.51" y="343" width="467.02" height="270" as="geometry"/>
                </mxCell>
                <mxCell id="11" value="&lt;font color=&quot;#ffffff&quot; size=&quot;1&quot;&gt;&lt;b style=&quot;font-size: 20px;&quot;&gt;Java Virtual Machine&lt;/b&gt;&lt;/font&gt;" style="text;html=1;align=center;verticalAlign=middle;resizable=1;points=[];autosize=1;fontSize=24;movable=1;rotatable=1;deletable=1;editable=1;connectable=1;fillColor=none;strokeColor=none;" parent="1" vertex="1">
                    <mxGeometry x="-65" y="363" width="220" height="40" as="geometry"/>
                </mxCell>
                <mxCell id="13" value="JIT&lt;br&gt;(Just in Time)" style="rounded=1;whiteSpace=wrap;html=1;shadow=0;glass=0;strokeColor=none;fontSize=20;fontColor=#FFFFFF;fillColor=#BA6300;movable=1;resizable=1;rotatable=1;deletable=1;editable=1;connectable=1;" parent="1" vertex="1">
                    <mxGeometry x="-85" y="413" width="260" height="130" as="geometry"/>
                </mxCell>
                <mxCell id="21" value="&lt;font style=&quot;font-size: 32px;&quot; color=&quot;#ffcc99&quot;&gt;JRE + Development Tools&lt;/font&gt;" style="text;html=1;align=center;verticalAlign=middle;resizable=1;points=[];autosize=1;strokeColor=none;fillColor=none;fontSize=20;fontColor=#FFFFFF;rounded=1;shadow=0;glass=0;arcSize=0;movable=1;rotatable=1;deletable=1;editable=1;connectable=1;" parent="1" vertex="1">
                    <mxGeometry x="-940" y="278" width="390" height="50" as="geometry"/>
                </mxCell>
                <mxCell id="22" value="&lt;font color=&quot;#ffff88&quot; style=&quot;font-size: 32px;&quot;&gt;JVE + Library Classes&lt;/font&gt;" style="text;html=1;align=center;verticalAlign=middle;resizable=1;points=[];autosize=1;strokeColor=none;fillColor=none;fontSize=20;fontColor=#FFFFFF;rounded=1;shadow=0;glass=0;movable=1;rotatable=1;deletable=1;editable=1;connectable=1;" parent="1" vertex="1">
                    <mxGeometry x="800" y="683" width="340" height="50" as="geometry"/>
                </mxCell>
                <mxCell id="31" value="&lt;font color=&quot;#1ba1e2&quot;&gt;Byte Code&amp;nbsp;&lt;/font&gt;" style="text;html=1;align=center;verticalAlign=middle;resizable=1;points=[];autosize=1;strokeColor=none;fillColor=none;fontSize=32;fontColor=#FFFF88;movable=1;rotatable=1;deletable=1;editable=1;connectable=1;" parent="1" vertex="1">
                    <mxGeometry x="-285" y="943" width="180" height="50" as="geometry"/>
                </mxCell>
                <mxCell id="37" style="edgeStyle=entityRelationEdgeStyle;rounded=1;html=1;strokeColor=#1BA1E2;strokeWidth=6;fontSize=32;fontColor=#FFFF88;targetPerimeterSpacing=0;movable=1;resizable=1;rotatable=1;deletable=1;editable=1;connectable=1;" parent="1" source="12" target="39" edge="1">
                    <mxGeometry relative="1" as="geometry">
                        <mxPoint x="290" y="978" as="targetPoint"/>
                    </mxGeometry>
                </mxCell>
                <mxCell id="38" style="edgeStyle=entityRelationEdgeStyle;rounded=1;html=1;strokeColor=#FFFF88;strokeWidth=6;fontSize=32;fontColor=#FFFF88;targetPerimeterSpacing=0;movable=1;resizable=1;rotatable=1;deletable=1;editable=1;connectable=1;" parent="1" source="7" edge="1">
                    <mxGeometry relative="1" as="geometry">
                        <mxPoint x="779.9999999999995" y="703" as="targetPoint"/>
                    </mxGeometry>
                </mxCell>
                <mxCell id="39" value="&lt;font color=&quot;#1ba1e2&quot;&gt;Machine Code&amp;nbsp;&lt;/font&gt;" style="text;html=1;align=center;verticalAlign=middle;resizable=1;points=[];autosize=1;strokeColor=none;fillColor=none;fontSize=32;fontColor=#FFFF88;rounded=1;shadow=0;glass=0;movable=1;rotatable=1;deletable=1;editable=1;connectable=1;" parent="1" vertex="1">
                    <mxGeometry x="-15" y="943" width="240" height="50" as="geometry"/>
                </mxCell>
                <mxCell id="40" style="edgeStyle=entityRelationEdgeStyle;rounded=1;html=1;strokeColor=#FFCC99;strokeWidth=6;fontSize=32;fontColor=#FFFF88;targetPerimeterSpacing=0;movable=1;resizable=1;rotatable=1;deletable=1;editable=1;connectable=1;" parent="1" target="39" edge="1">
                    <mxGeometry relative="1" as="geometry">
                        <mxPoint x="-105" y="968" as="sourcePoint"/>
                    </mxGeometry>
                </mxCell>
                <mxCell id="42" style="edgeStyle=entityRelationEdgeStyle;rounded=1;html=1;strokeColor=#BA6300;strokeWidth=6;fontSize=32;fontColor=#FFFF88;targetPerimeterSpacing=0;exitX=0;exitY=0.75;exitDx=0;exitDy=0;movable=1;resizable=1;rotatable=1;deletable=1;editable=1;connectable=1;" parent="1" source="13" target="43" edge="1">
                    <mxGeometry relative="1" as="geometry">
                        <mxPoint x="-820" y="913" as="targetPoint"/>
                        <mxPoint x="-570" y="553" as="sourcePoint"/>
                    </mxGeometry>
                </mxCell>
                <mxCell id="43" value="&lt;font color=&quot;#ba6300&quot;&gt;Just in Time&lt;/font&gt;" style="text;html=1;align=center;verticalAlign=middle;resizable=1;points=[];autosize=1;strokeColor=none;fillColor=none;fontSize=32;fontColor=#FFFF88;rounded=1;shadow=0;glass=0;movable=1;rotatable=1;deletable=1;editable=1;connectable=1;" parent="1" vertex="1">
                    <mxGeometry x="-890" y="893" width="190" height="50" as="geometry"/>
                </mxCell>
                <mxCell id="45" value="&lt;font size=&quot;1&quot; style=&quot;&quot;&gt;&lt;b style=&quot;font-size: 40px;&quot;&gt;Java Virtual Machine Runtime&lt;/b&gt;&lt;/font&gt;" style="text;html=1;align=center;verticalAlign=middle;resizable=1;points=[];autosize=1;strokeColor=none;fillColor=none;glass=0;imageAlign=left;imageVerticalAlign=middle;movable=1;rotatable=1;deletable=1;editable=1;connectable=1;" vertex="1" parent="1">
                    <mxGeometry x="-120" y="1230" width="590" height="60" as="geometry"/>
                </mxCell>
                <mxCell id="85" style="edgeStyle=none;html=1;entryX=0;entryY=0.75;entryDx=0;entryDy=0;strokeColor=#F0A330;strokeWidth=6;fontSize=30;endArrow=classic;endFill=1;" edge="1" parent="1" source="46" target="47">
                    <mxGeometry relative="1" as="geometry">
                        <Array as="points">
                            <mxPoint x="-1070" y="1730"/>
                        </Array>
                    </mxGeometry>
                </mxCell>
                <mxCell id="46" value="Source Code" style="text;html=1;align=center;verticalAlign=middle;resizable=0;points=[];autosize=1;strokeColor=none;fillColor=none;fontSize=40;" vertex="1" parent="1">
                    <mxGeometry x="-1280" y="1900" width="260" height="60" as="geometry"/>
                </mxCell>
                <mxCell id="63" style="edgeStyle=none;html=1;fontSize=25;strokeWidth=10;" edge="1" parent="1" source="47" target="54">
                    <mxGeometry relative="1" as="geometry"/>
                </mxCell>
                <mxCell id="47" value="" style="rounded=1;whiteSpace=wrap;html=1;fontSize=40;fillColor=#d80073;fontColor=#ffffff;strokeColor=#A50040;" vertex="1" parent="1">
                    <mxGeometry x="-811" y="1560" width="360" height="180" as="geometry"/>
                </mxCell>
                <mxCell id="49" value="&lt;font style=&quot;font-size: 25px;&quot;&gt;(Human Readable)&lt;/font&gt;" style="text;html=1;align=center;verticalAlign=middle;resizable=0;points=[];autosize=1;strokeColor=none;fillColor=none;fontSize=40;" vertex="1" parent="1">
                    <mxGeometry x="-746" y="1580" width="230" height="60" as="geometry"/>
                </mxCell>
                <mxCell id="53" value="&lt;span style=&quot;&quot;&gt;.Java File&lt;/span&gt;" style="text;html=1;align=center;verticalAlign=middle;resizable=0;points=[];autosize=1;strokeColor=none;fillColor=none;fontSize=40;" vertex="1" parent="1">
                    <mxGeometry x="-731" y="1650" width="190" height="60" as="geometry"/>
                </mxCell>
                <mxCell id="64" style="edgeStyle=none;html=1;entryX=0;entryY=0.5;entryDx=0;entryDy=0;strokeWidth=10;fontSize=25;" edge="1" parent="1" source="54" target="57">
                    <mxGeometry relative="1" as="geometry"/>
                </mxCell>
                <mxCell id="78" style="edgeStyle=none;html=1;strokeColor=#F0A330;strokeWidth=6;fontSize=30;endArrow=classic;endFill=1;entryX=0.995;entryY=0.693;entryDx=0;entryDy=0;entryPerimeter=0;" edge="1" parent="1" source="54" target="77">
                    <mxGeometry relative="1" as="geometry">
                        <mxPoint x="40" y="2050" as="targetPoint"/>
                        <Array as="points">
                            <mxPoint x="290" y="1910"/>
                        </Array>
                    </mxGeometry>
                </mxCell>
                <mxCell id="54" value="" style="rounded=1;whiteSpace=wrap;html=1;fontSize=40;fillColor=#008a00;fontColor=#ffffff;strokeColor=#005700;" vertex="1" parent="1">
                    <mxGeometry x="9" y="1560" width="360" height="180" as="geometry"/>
                </mxCell>
                <mxCell id="55" value="&lt;font style=&quot;font-size: 25px;&quot;&gt;(Byte Code)&lt;/font&gt;" style="text;html=1;align=center;verticalAlign=middle;resizable=0;points=[];autosize=1;strokeColor=none;fillColor=none;fontSize=40;" vertex="1" parent="1">
                    <mxGeometry x="109" y="1580" width="160" height="60" as="geometry"/>
                </mxCell>
                <mxCell id="56" value="&lt;span style=&quot;&quot;&gt;.Class File&lt;/span&gt;" style="text;html=1;align=center;verticalAlign=middle;resizable=0;points=[];autosize=1;strokeColor=none;fillColor=none;fontSize=40;" vertex="1" parent="1">
                    <mxGeometry x="79" y="1650" width="210" height="60" as="geometry"/>
                </mxCell>
                <mxCell id="76" style="edgeStyle=none;html=1;strokeWidth=6;fontSize=30;endArrow=classic;endFill=1;strokeColor=#F0A330;entryX=-0.01;entryY=0.653;entryDx=0;entryDy=0;entryPerimeter=0;" edge="1" parent="1" source="57" target="75">
                    <mxGeometry relative="1" as="geometry">
                        <Array as="points">
                            <mxPoint x="1060" y="1410"/>
                        </Array>
                    </mxGeometry>
                </mxCell>
                <mxCell id="57" value="" style="rounded=1;whiteSpace=wrap;html=1;fontSize=40;fillColor=#1ba1e2;fontColor=#ffffff;strokeColor=#006EAF;" vertex="1" parent="1">
                    <mxGeometry x="809" y="1560" width="360" height="180" as="geometry"/>
                </mxCell>
                <mxCell id="58" value="&lt;font style=&quot;font-size: 25px;&quot;&gt;(Binary Code)&lt;/font&gt;" style="text;html=1;align=center;verticalAlign=middle;resizable=0;points=[];autosize=1;strokeColor=none;fillColor=none;fontSize=40;" vertex="1" parent="1">
                    <mxGeometry x="899" y="1580" width="180" height="60" as="geometry"/>
                </mxCell>
                <mxCell id="59" value="&lt;span style=&quot;&quot;&gt;Machine Code&lt;/span&gt;" style="text;html=1;align=center;verticalAlign=middle;resizable=0;points=[];autosize=1;strokeColor=none;fillColor=none;fontSize=40;" vertex="1" parent="1">
                    <mxGeometry x="844" y="1650" width="280" height="60" as="geometry"/>
                </mxCell>
                <mxCell id="65" value="&lt;font style=&quot;font-size: 30px;&quot;&gt;Compailer&lt;/font&gt;" style="text;html=1;align=center;verticalAlign=middle;resizable=0;points=[];autosize=1;strokeColor=none;fillColor=none;fontSize=25;" vertex="1" parent="1">
                    <mxGeometry x="-330" y="1560" width="160" height="50" as="geometry"/>
                </mxCell>
                <mxCell id="67" value="(Entair File)" style="text;html=1;align=center;verticalAlign=middle;resizable=0;points=[];autosize=1;strokeColor=none;fillColor=none;fontSize=30;" vertex="1" parent="1">
                    <mxGeometry x="-340" y="1690" width="180" height="50" as="geometry"/>
                </mxCell>
                <mxCell id="68" value="&lt;font style=&quot;font-size: 30px;&quot;&gt;Interpreter&lt;/font&gt;" style="text;html=1;align=center;verticalAlign=middle;resizable=0;points=[];autosize=1;strokeColor=none;fillColor=none;fontSize=25;" vertex="1" parent="1">
                    <mxGeometry x="520" y="1560" width="160" height="50" as="geometry"/>
                </mxCell>
                <mxCell id="69" value="(Line by Line)" style="text;html=1;align=center;verticalAlign=middle;resizable=0;points=[];autosize=1;strokeColor=none;fillColor=none;fontSize=30;" vertex="1" parent="1">
                    <mxGeometry x="495" y="1690" width="210" height="50" as="geometry"/>
                </mxCell>
                <mxCell id="75" value="0 1 0 0&lt;br&gt;0 0 1 0&lt;br&gt;1 0 1 1" style="whiteSpace=wrap;html=1;aspect=fixed;fontSize=30;" vertex="1" parent="1">
                    <mxGeometry x="1230" y="1280" width="120" height="120" as="geometry"/>
                </mxCell>
                <mxCell id="77" value="Êþº¾ *[]&lt;br&gt;$Kb -=[]&amp;nbsp;&lt;br&gt;*· ± !|{k^" style="whiteSpace=wrap;html=1;aspect=fixed;fontSize=30;" vertex="1" parent="1">
                    <mxGeometry x="-95" y="1980" width="140" height="140" as="geometry"/>
                </mxCell>
                <mxCell id="79" value="Ex:" style="text;html=1;align=center;verticalAlign=middle;resizable=0;points=[];autosize=1;strokeColor=none;fillColor=none;fontSize=30;" vertex="1" parent="1">
                    <mxGeometry x="1160" y="1280" width="70" height="50" as="geometry"/>
                </mxCell>
                <mxCell id="80" value="Ex:" style="text;html=1;align=center;verticalAlign=middle;resizable=0;points=[];autosize=1;strokeColor=none;fillColor=none;fontSize=30;" vertex="1" parent="1">
                    <mxGeometry x="-170" y="1980" width="70" height="50" as="geometry"/>
                </mxCell>
                <mxCell id="83" style="edgeStyle=none;html=1;strokeColor=#F0A330;strokeWidth=6;fontSize=30;endArrow=classic;endFill=1;exitX=0.5;exitY=0;exitDx=0;exitDy=0;entryX=1;entryY=0.5;entryDx=0;entryDy=0;" edge="1" parent="1" source="47" target="81">
                    <mxGeometry relative="1" as="geometry">
                        <mxPoint x="-870" y="1240" as="targetPoint"/>
                        <Array as="points">
                            <mxPoint x="-690" y="1390"/>
                        </Array>
                    </mxGeometry>
                </mxCell>
                <mxCell id="81" value="Java&lt;br&gt;Code&lt;br&gt;Cool" style="whiteSpace=wrap;html=1;aspect=fixed;fontSize=30;" vertex="1" parent="1">
                    <mxGeometry x="-1080" y="1230" width="140" height="140" as="geometry"/>
                </mxCell>
                <mxCell id="82" value="Ex:" style="text;html=1;align=center;verticalAlign=middle;resizable=0;points=[];autosize=1;strokeColor=none;fillColor=none;fontSize=30;" vertex="1" parent="1">
                    <mxGeometry x="-1160" y="1240" width="70" height="50" as="geometry"/>
                </mxCell>
            </root>
        </mxGraphModel>
    </diagram>
</mxfile>